<svg width="50" height="50" viewBox="0 0 50 50" fill="none" xmlns="http://www.w3.org/2000/svg">
<g clip-path="url(#clip0_805_267)">
<path d="M25.104 45.8327C23.3679 45.8327 21.8922 45.225 20.6769 44.0098C19.4616 42.7945 18.854 41.3188 18.854 39.5827C18.854 38.2632 19.2359 37.074 19.9998 36.015C20.7637 34.9559 21.7359 34.2007 22.9165 33.7494V20.416L15.7811 29.0619C16.0589 29.548 16.2759 30.0601 16.4321 30.5983C16.5884 31.1365 16.6665 31.7007 16.6665 32.291C16.6665 34.0271 16.0589 35.5028 14.8436 36.7181C13.6283 37.9334 12.1526 38.541 10.4165 38.541C8.68039 38.541 7.2047 37.9334 5.98942 36.7181C4.77414 35.5028 4.1665 34.0271 4.1665 32.291C4.1665 30.5549 4.77414 29.0792 5.98942 27.8639C7.2047 26.6487 8.68039 26.041 10.4165 26.041C10.7984 26.041 11.163 26.0671 11.5103 26.1191C11.8575 26.1712 12.2047 26.2667 12.5519 26.4056L21.5103 15.5723C20.6769 14.982 20.0085 14.2441 19.505 13.3587C19.0016 12.4733 18.7498 11.4924 18.7498 10.416C18.7498 8.6799 19.3575 7.20421 20.5728 5.98893C21.788 4.77365 23.2637 4.16602 24.9998 4.16602C26.7359 4.16602 28.2116 4.77365 29.4269 5.98893C30.6422 7.20421 31.2498 8.6799 31.2498 10.416C31.2498 11.4924 30.9981 12.4733 30.4946 13.3587C29.9912 14.2441 29.3228 14.982 28.4894 15.5723L37.4478 26.4056C37.795 26.2667 38.1422 26.1712 38.4894 26.1191C38.8366 26.0671 39.2012 26.041 39.5832 26.041C41.3193 26.041 42.795 26.6487 44.0103 27.8639C45.2255 29.0792 45.8332 30.5549 45.8332 32.291C45.8332 34.0271 45.2255 35.5028 44.0103 36.7181C42.795 37.9334 41.3193 38.541 39.5832 38.541C37.8471 38.541 36.3714 37.9334 35.1561 36.7181C33.9408 35.5028 33.3332 34.0271 33.3332 32.291C33.3332 31.7007 33.4113 31.1365 33.5675 30.5983C33.7238 30.0601 33.9408 29.548 34.2186 29.0619L27.0832 20.416V33.6452C28.3332 34.0619 29.3575 34.8084 30.1561 35.8848C30.9547 36.9612 31.354 38.1938 31.354 39.5827C31.354 41.3188 30.7464 42.7945 29.5311 44.0098C28.3158 45.225 26.8401 45.8327 25.104 45.8327ZM25.104 41.666C25.6943 41.666 26.1891 41.4664 26.5884 41.0671C26.9877 40.6678 27.1873 40.173 27.1873 39.5827C27.1873 38.9924 26.9877 38.4976 26.5884 38.0983C26.1891 37.699 25.6943 37.4994 25.104 37.4994C24.5137 37.4994 24.0189 37.699 23.6196 38.0983C23.2203 38.4976 23.0207 38.9924 23.0207 39.5827C23.0207 40.173 23.2203 40.6678 23.6196 41.0671C24.0189 41.4664 24.5137 41.666 25.104 41.666ZM10.4165 34.3744C11.0068 34.3744 11.5016 34.1747 11.9009 33.7754C12.3002 33.3761 12.4998 32.8813 12.4998 32.291C12.4998 31.7007 12.3002 31.2059 11.9009 30.8066C11.5016 30.4073 11.0068 30.2077 10.4165 30.2077C9.82623 30.2077 9.33143 30.4073 8.93213 30.8066C8.53282 31.2059 8.33317 31.7007 8.33317 32.291C8.33317 32.8813 8.53282 33.3761 8.93213 33.7754C9.33143 34.1747 9.82623 34.3744 10.4165 34.3744ZM39.5832 34.3744C40.1735 34.3744 40.6682 34.1747 41.0675 33.7754C41.4669 33.3761 41.6665 32.8813 41.6665 32.291C41.6665 31.7007 41.4669 31.2059 41.0675 30.8066C40.6682 30.4073 40.1735 30.2077 39.5832 30.2077C38.9929 30.2077 38.4981 30.4073 38.0988 30.8066C37.6995 31.2059 37.4998 31.7007 37.4998 32.291C37.4998 32.8813 37.6995 33.3761 38.0988 33.7754C38.4981 34.1747 38.9929 34.3744 39.5832 34.3744ZM24.9998 12.4993C25.5901 12.4993 26.0849 12.2997 26.4842 11.9004C26.8835 11.5011 27.0832 11.0063 27.0832 10.416C27.0832 9.82574 26.8835 9.33095 26.4842 8.93164C26.0849 8.53234 25.5901 8.33268 24.9998 8.33268C24.4096 8.33268 23.9148 8.53234 23.5155 8.93164C23.1162 9.33095 22.9165 9.82574 22.9165 10.416C22.9165 11.0063 23.1162 11.5011 23.5155 11.9004C23.9148 12.2997 24.4096 12.4993 24.9998 12.4993Z" fill="#5762D5"/>
</g>
<defs>
<clipPath id="clip0_805_267">
<rect width="50" height="50" fill="white"/>
</clipPath>
</defs>
</svg>
